# MagicaVoxel @ Ephtracy

# group
o 

# material
mtllib Voxel Smartphone.mtl
usemtl palette

# normals
vn -1 0 0
vn 1 0 0
vn 0 0 -1
vn 0 0 1
vn 0 -1 0
vn 0 1 0

# texcoords
vt 0.955078 0.5
vt 0.986328 0.5
vt 0.990234 0.5
vt 0.994141 0.5

# verts
v -1.3 0 -0.7
v -1.3 0 0
v -1.3 0.2 -0.7
v -1.3 0.2 0
v -1.19209e-007 0 -0.7
v -1.19209e-007 0 -0.4
v -1.19209e-007 0 -0.3
v -1.19209e-007 0 0
v -1.19209e-007 0.1 -0.4
v -1.19209e-007 0.1 -0.3
v -1.19209e-007 0.2 -0.7
v -1.19209e-007 0.2 0
v -1.3 0 -0.7
v -1.3 0.2 -0.7
v -1.19209e-007 0 -0.7
v -1.19209e-007 0.2 -0.7
v -1.3 0 0
v -1.3 0.2 0
v -1.19209e-007 0 0
v -1.19209e-007 0.2 0
v -1.3 0 -0.7
v -1.19209e-007 0 -0.7
v -1.1 0 -0.6
v -0.2 0 -0.6
v -1.2 0 -0.4
v -1.1 0 -0.4
v -0.1 0 -0.4
v -1.19209e-007 0 -0.4
v -1.2 0 -0.3
v -1.1 0 -0.3
v -0.1 0 -0.3
v -1.19209e-007 0 -0.3
v -1.1 0 -0.1
v -0.2 0 -0.1
v -1.3 0 0
v -1.19209e-007 0 0
v -1.3 0.2 -0.7
v -1.19209e-007 0.2 -0.7
v -0.3 0.2 -0.6
v -0.1 0.2 -0.6
v -0.3 0.2 -0.5
v -0.1 0.2 -0.5
v -1.3 0.2 0
v -1.19209e-007 0.2 0

# faces
f 1/3/1 2/3/1 3/3/1
f 3/3/1 2/3/1 4/3/1
f 9/3/2 6/3/2 5/3/2
f 9/1/2 7/1/2 6/1/2
f 10/3/2 8/3/2 7/3/2
f 10/1/2 7/1/2 9/1/2
f 11/3/2 9/3/2 5/3/2
f 11/3/2 10/3/2 9/3/2
f 12/3/2 8/3/2 10/3/2
f 12/3/2 10/3/2 11/3/2
f 13/3/3 14/3/3 15/3/3
f 15/3/3 14/3/3 16/3/3
f 19/3/4 18/3/4 17/3/4
f 20/3/4 18/3/4 19/3/4
f 21/3/5 22/3/5 23/3/5
f 23/3/5 22/3/5 24/3/5
f 21/3/5 23/3/5 25/3/5
f 23/4/5 24/4/5 26/4/5
f 25/3/5 23/3/5 26/3/5
f 24/3/5 22/3/5 27/3/5
f 27/3/5 22/3/5 28/3/5
f 21/3/5 25/3/5 29/3/5
f 25/2/5 26/2/5 29/2/5
f 26/4/5 24/4/5 30/4/5
f 29/2/5 26/2/5 30/2/5
f 27/1/5 28/1/5 31/1/5
f 24/3/5 27/3/5 31/3/5
f 31/1/5 28/1/5 32/1/5
f 30/4/5 24/4/5 33/4/5
f 29/3/5 30/3/5 33/3/5
f 31/3/5 32/3/5 34/3/5
f 33/4/5 24/4/5 34/4/5
f 24/3/5 31/3/5 34/3/5
f 21/3/5 29/3/5 35/3/5
f 29/3/5 33/3/5 35/3/5
f 33/3/5 34/3/5 35/3/5
f 34/3/5 32/3/5 36/3/5
f 35/3/5 34/3/5 36/3/5
f 39/3/6 38/3/6 37/3/6
f 40/3/6 38/3/6 39/3/6
f 41/3/6 39/3/6 37/3/6
f 41/1/6 40/1/6 39/1/6
f 42/3/6 38/3/6 40/3/6
f 42/1/6 40/1/6 41/1/6
f 43/3/6 41/3/6 37/3/6
f 43/3/6 42/3/6 41/3/6
f 44/3/6 38/3/6 42/3/6
f 44/3/6 42/3/6 43/3/6
